<svg xmlns="http://www.w3.org/2000/svg" viewBox="0 0 41.07 14.37"><defs><style>.cls-1{fill:#004c9c;}.cls-2{fill:#004c9b;}.cls-3{fill:#87c1fd;}.cls-4{fill:#0075f0;}.cls-5{fill:#3397ff;}</style></defs><title>logo자산 9</title><g id="레이어_2" data-name="레이어 2"><g id="레이어_1-2" data-name="레이어 1"><path class="cls-1" d="M32.8,14.37h0a.41.41,0,0,1,0-.25q0-5.15,0-10.29s0-.06,0-.1a.12.12,0,0,1,.11-.13H33c.31,0,.62,0,.93,0a1.93,1.93,0,0,1,.56.1,1.27,1.27,0,0,1,.76.69.35.35,0,0,0,0,.09s0,0,0,0a2.19,2.19,0,0,1,.92-.78,3,3,0,0,1,1.2-.3,3.38,3.38,0,0,1,1.73.38A3.3,3.3,0,0,1,40.65,5.3,4.25,4.25,0,0,1,41,6.59l0,.16s0,0,0,0V7.85s0,0,0,.07a4.41,4.41,0,0,1-.36,1.36,3.3,3.3,0,0,1-3.95,1.88,2.34,2.34,0,0,1-1.29-.81s0,0,0,0,0,0,0,0,0,.17,0,.26,0,.43,0,.64q0,1.37,0,2.74a.7.7,0,0,1,0,.35Zm2.73-7.05V7.5a1.87,1.87,0,0,0,.24.83,1.46,1.46,0,0,0,2.65-.24,2.14,2.14,0,0,0,.13-.92,1.85,1.85,0,0,0-.24-.83,1.46,1.46,0,0,0-2.56,0A2,2,0,0,0,35.54,7.31Z"/><path class="cls-1" d="M10.57,11.09H.21A.18.18,0,0,1,0,11H0v-.09s0,0,.05-.05L.85,9.5l0-.07a2.67,2.67,0,0,0,.29,0l.66-.06Q2.44,9.29,3,9.17a14.25,14.25,0,0,0,2.69-.83A3.16,3.16,0,0,1,6,8.21l.56.49a13.9,13.9,0,0,0,1.13.86,14.55,14.55,0,0,0,2,1.14l.77.34S10.54,11.06,10.57,11.09Z"/><path class="cls-2" d="M30.14,0s0,0,.06,0a1.39,1.39,0,0,1,.47.19,1.41,1.41,0,0,1,.67,1.07A1.43,1.43,0,1,1,29.6,0l.08,0s0,0,0,0Z"/><path class="cls-1" d="M14.13,5.82q0-2.52,0-5a.94.94,0,0,1,0-.1.12.12,0,0,1,.13-.12h6.39c.17,0,.2.06.2.21,0,.4,0,.79,0,1.19a.84.84,0,0,1-.53.81.78.78,0,0,1-.33.07H16.93s-.06,0-.06.06,0,0,0,.05q0,.92,0,1.85s0,0,0,.05,0,.06.06.06h3.15a.13.13,0,0,1,.13.13.7.7,0,0,1,0,.08c0,.39,0,.77,0,1.16a.87.87,0,0,1-.88.89H17c-.13,0-.12,0-.12.12q0,1.82,0,3.63c0,.16,0,.2-.2.2H14.26a.13.13,0,0,1-.13-.13s0-.06,0-.1Q14.13,8.34,14.13,5.82Z"/><path class="cls-1" d="M24,4.53a.7.7,0,0,0,.1-.11,3.5,3.5,0,0,1,.82-.71,2.36,2.36,0,0,1,1.54-.33,2.2,2.2,0,0,1,.74.21.8.8,0,0,1,.43.52.74.74,0,0,1,0,.24,3.88,3.88,0,0,1-.41,1.46l-.11.23a.2.2,0,0,1-.33.08,2.43,2.43,0,0,0-.65-.34,1.79,1.79,0,0,0-1.43.14,1.12,1.12,0,0,0-.59.88,1.77,1.77,0,0,0,0,.25q0,1.91,0,3.81c0,.16,0,.21-.21.21H21.54a.12.12,0,0,1-.12-.12s0,0,0-.07q0-3.55,0-7.11s0,0,0-.05a.13.13,0,0,1,.14-.14l.47,0c.22,0,.44,0,.66,0a1.8,1.8,0,0,1,.64.17,1.27,1.27,0,0,1,.59.64l0,.11Z"/><path class="cls-3" d="M3.42,5.05a.24.24,0,0,1,0-.08L5.88.77l0-.05a.13.13,0,0,1,.23,0l0,.05L9.24,6.1a.24.24,0,0,1,0,.08l-.34.27A14.17,14.17,0,0,1,7,7.71c-.32.18-.65.34-1,.49l-.15-.12a16.15,16.15,0,0,1-1.22-1.3c-.28-.34-.55-.69-.8-1.06Z"/><path class="cls-2" d="M28.58,7.34q0-1.77,0-3.54c0-.17,0-.19.19-.2h.14l1.1,0a2.16,2.16,0,0,1,.44,0,.94.94,0,0,1,.81.89c0,.08,0,.15,0,.23q0,3.07,0,6.13a1,1,0,0,1,0,.1.13.13,0,0,1-.13.13H28.75c-.1,0-.17,0-.17-.18Q28.58,9.12,28.58,7.34Z"/><path class="cls-4" d="M6,8.2c.34-.15.67-.32,1-.49A14.17,14.17,0,0,0,8.94,6.45l.34-.27a.22.22,0,0,1,0,.07L12,10.85c.08.14,0,.26-.14.26H10.57s-.06,0-.1-.05L9.7,10.7a14.55,14.55,0,0,1-2-1.14A13.9,13.9,0,0,1,6.58,8.7L6,8.21Z"/><path class="cls-5" d="M6,8.2H6a3.16,3.16,0,0,0-.32.13A14.25,14.25,0,0,1,3,9.17q-.58.12-1.17.19l-.66.06a2.67,2.67,0,0,1-.29,0l.38-.67,2.1-3.64a.22.22,0,0,1,0-.07l.44.67c.25.37.52.72.8,1.06a16.15,16.15,0,0,0,1.22,1.3Z"/></g></g></svg>