<svg xmlns="http://www.w3.org/2000/svg" xmlns:xlink="http://www.w3.org/1999/xlink" viewBox="0 0 265.04 123.94"><defs><style>.cls-1{fill:#203c92;}.cls-2{fill:#f48120;}.cls-3{fill:#10b0e6;}.cls-4{fill:#a5cd39;}.cls-5{fill:url(#linear-gradient);}</style><linearGradient id="linear-gradient" x1="217.17" y1="-445.85" x2="199.69" y2="-415.93" gradientTransform="translate(19.28 555.03) rotate(-6.02)" gradientUnits="userSpaceOnUse"><stop offset="0" stop-color="#a5cd39"/><stop offset="1" stop-color="#00a498"/></linearGradient></defs><title>Asset 1</title><g id="Layer_2" data-name="Layer 2"><g id="Layer_1-2" data-name="Layer 1"><path class="cls-1" d="M0,67.35H1.12v4.13h0c.23-.33.46-.63.67-.91l2.62-3.22H5.83L2.72,71l3.35,4.93H4.76L2,71.71l-.83.94v3.27H0Z"/><path class="cls-1" d="M12.45,72.79a3,3,0,0,1-3.07,3.27,2.94,2.94,0,0,1-3-3.17,3,3,0,0,1,3.05-3.25A2.91,2.91,0,0,1,12.45,72.79Zm-4.88.07c0,1.34.77,2.36,1.86,2.36s1.87-1,1.87-2.39c0-1-.52-2.35-1.84-2.35S7.57,71.7,7.57,72.86Z"/><path class="cls-1" d="M13.86,71.69c0-.73,0-1.35,0-1.93h1L14.84,71h0a1.86,1.86,0,0,1,1.72-1.35l.3,0v1.06a1.46,1.46,0,0,0-.38,0A1.56,1.56,0,0,0,15,72.12a4.07,4.07,0,0,0,0,.52v3.28H13.86Z"/><path class="cls-1" d="M18.52,73.05a2,2,0,0,0,2.12,2.13,4.14,4.14,0,0,0,1.7-.31l.2.8a5.15,5.15,0,0,1-2.06.39,2.87,2.87,0,0,1-3-3.12c0-1.85,1.1-3.3,2.89-3.3,2,0,2.55,1.75,2.55,2.89a3.33,3.33,0,0,1,0,.52Zm3.29-.8a1.6,1.6,0,0,0-1.56-1.81,1.82,1.82,0,0,0-1.71,1.81Z"/><path class="cls-1" d="M28.6,74.45a10.84,10.84,0,0,0,.09,1.47h-1l-.09-.77h0a2.29,2.29,0,0,1-1.88.91,1.75,1.75,0,0,1-1.88-1.77c0-1.48,1.32-2.3,3.7-2.29v-.12a1.26,1.26,0,0,0-1.4-1.41,3,3,0,0,0-1.62.45l-.25-.75a4,4,0,0,1,2-.53c1.89,0,2.34,1.28,2.34,2.5Zm-1.08-1.67c-1.22,0-2.61.19-2.61,1.39A1,1,0,0,0,26,75.23a1.56,1.56,0,0,0,1.51-1,1.14,1.14,0,0,0,.05-.35Z"/><path class="cls-1" d="M34.26,67.35v8.57H33.14V67.35Z"/><path class="cls-1" d="M36.29,71.43c0-.65,0-1.16,0-1.67h1l.06,1h0a2.26,2.26,0,0,1,2-1.14c.85,0,2.18.51,2.18,2.62v3.66H40.41V72.37c0-1-.37-1.82-1.43-1.82a1.62,1.62,0,0,0-1.57,1.67v3.7H36.29Z"/><path class="cls-1" d="M43.2,74.79a3.08,3.08,0,0,0,1.49.43c.8,0,1.18-.39,1.18-.91s-.32-.82-1.13-1.12c-1.12-.41-1.64-1-1.64-1.75a1.9,1.9,0,0,1,2.12-1.8,2.8,2.8,0,0,1,1.5.38l-.26.81a2.45,2.45,0,0,0-1.26-.36c-.67,0-1,.38-1,.83s.35.74,1.16,1.06c1,.39,1.61.93,1.61,1.84,0,1.1-.85,1.86-2.29,1.86a3.56,3.56,0,0,1-1.73-.43Z"/><path class="cls-1" d="M49.74,68.29v1.47h1.6v.86h-1.6v3.32c0,.76.22,1.19.84,1.19a2.16,2.16,0,0,0,.65-.07l.05.85a3,3,0,0,1-1,.15,1.62,1.62,0,0,1-1.21-.47A2.43,2.43,0,0,1,48.65,74V70.62h-1v-.86h1V68.62Z"/><path class="cls-1" d="M53.85,68a.69.69,0,0,1-1.38,0,.69.69,0,0,1,.7-.71A.68.68,0,0,1,53.85,68Zm-1.24,7.88V69.76h1.12v6.16Z"/><path class="cls-1" d="M56.94,68.29v1.47h1.6v.86h-1.6v3.32c0,.76.21,1.19.83,1.19a2.12,2.12,0,0,0,.65-.07l.06.85a3,3,0,0,1-1,.15,1.62,1.62,0,0,1-1.21-.47A2.43,2.43,0,0,1,55.84,74V70.62h-1v-.86h1V68.62Z"/><path class="cls-1" d="M65,74.23c0,.65,0,1.21,0,1.69H64l-.06-1h0a2.3,2.3,0,0,1-2,1.14c-1,0-2.13-.55-2.13-2.69V69.76h1.12v3.4c0,1.17.37,2,1.38,2a1.6,1.6,0,0,0,1.47-1,1.39,1.39,0,0,0,.1-.57V69.76H65Z"/><path class="cls-1" d="M68.17,68.29v1.47h1.6v.86h-1.6v3.32c0,.76.21,1.19.83,1.19a2.12,2.12,0,0,0,.65-.07l.06.85a3,3,0,0,1-1,.15,1.62,1.62,0,0,1-1.21-.47A2.43,2.43,0,0,1,67.07,74V70.62h-.95v-.86h.95V68.62Z"/><path class="cls-1" d="M71.58,73.05a2,2,0,0,0,2.11,2.13,4.11,4.11,0,0,0,1.7-.31l.21.8a5.15,5.15,0,0,1-2.06.39,2.87,2.87,0,0,1-3-3.12c0-1.85,1.09-3.3,2.89-3.3,2,0,2.54,1.75,2.54,2.89a2.43,2.43,0,0,1,0,.52Zm3.28-.8a1.59,1.59,0,0,0-1.55-1.81,1.83,1.83,0,0,0-1.72,1.81Z"/><path class="cls-1" d="M85.6,72.79a3,3,0,0,1-3.06,3.27,2.94,2.94,0,0,1-3-3.17,3,3,0,0,1,3-3.25A2.9,2.9,0,0,1,85.6,72.79Zm-4.87.07c0,1.34.77,2.36,1.86,2.36s1.87-1,1.87-2.39c0-1-.52-2.35-1.84-2.35S80.73,71.7,80.73,72.86Z"/><path class="cls-1" d="M87.14,75.92v-5.3h-.85v-.86h.85v-.29a3,3,0,0,1,.71-2.15,2.13,2.13,0,0,1,1.5-.57,2.56,2.56,0,0,1,1,.18l-.16.86a1.7,1.7,0,0,0-.71-.14c-1,0-1.2.83-1.2,1.78v.33h1.49v.86H88.24v5.3Z"/><path class="cls-1" d="M93.34,74.57a3.72,3.72,0,0,0,2,.56c1.13,0,1.79-.6,1.79-1.46s-.46-1.26-1.61-1.69c-1.4-.51-2.27-1.25-2.27-2.44,0-1.34,1.11-2.33,2.78-2.33a3.8,3.8,0,0,1,1.88.42l-.31.9A3.19,3.19,0,0,0,96,68.12c-1.17,0-1.62.7-1.62,1.29,0,.8.52,1.19,1.71,1.65,1.45.56,2.17,1.26,2.17,2.52s-1,2.48-3,2.48A4.41,4.41,0,0,1,93,75.5Z"/><path class="cls-1" d="M101,68.29v1.47h1.6v.86H101v3.32c0,.76.21,1.19.84,1.19a2.21,2.21,0,0,0,.65-.07l0,.85a3,3,0,0,1-1,.15,1.62,1.62,0,0,1-1.21-.47A2.43,2.43,0,0,1,99.93,74V70.62H99v-.86h1V68.62Z"/><path class="cls-1" d="M108.22,74.45a9.43,9.43,0,0,0,.09,1.47h-1l-.09-.77h0a2.29,2.29,0,0,1-1.88.91,1.75,1.75,0,0,1-1.88-1.77c0-1.48,1.32-2.3,3.7-2.29v-.12a1.26,1.26,0,0,0-1.4-1.41,3,3,0,0,0-1.61.45l-.26-.75a4,4,0,0,1,2-.53c1.88,0,2.34,1.28,2.34,2.5Zm-1.08-1.67c-1.22,0-2.61.19-2.61,1.39a1,1,0,0,0,1,1.06,1.41,1.41,0,0,0,1.57-1.38Z"/><path class="cls-1" d="M110,71.69c0-.73,0-1.35,0-1.93h1L111,71h0a1.85,1.85,0,0,1,1.71-1.35l.31,0v1.06a1.46,1.46,0,0,0-.38,0,1.56,1.56,0,0,0-1.5,1.43,2.82,2.82,0,0,0,0,.52v3.28H110Z"/><path class="cls-1" d="M115.85,68.29v1.47h1.6v.86h-1.6v3.32c0,.76.21,1.19.84,1.19a2.09,2.09,0,0,0,.64-.07l.06.85a3,3,0,0,1-1,.15,1.62,1.62,0,0,1-1.21-.47,2.43,2.43,0,0,1-.43-1.62V70.62h-1v-.86h1V68.62Z"/><path class="cls-1" d="M123.87,74.23c0,.65,0,1.21,0,1.69h-1l-.06-1h0a2.29,2.29,0,0,1-2,1.14c-1,0-2.13-.55-2.13-2.69V69.76h1.12v3.4c0,1.17.37,2,1.38,2a1.6,1.6,0,0,0,1.47-1,1.39,1.39,0,0,0,.1-.57V69.76h1.13Z"/><path class="cls-1" d="M125.73,71.78c0-.79,0-1.43,0-2h1l.06,1.06h0A2.39,2.39,0,0,1,129,69.64c1.5,0,2.62,1.26,2.62,3.11,0,2.22-1.36,3.31-2.81,3.31a2.14,2.14,0,0,1-1.9-1h0v3.35h-1.1Zm1.1,1.63a1.65,1.65,0,0,0,.06.46,1.71,1.71,0,0,0,1.67,1.31c1.19,0,1.87-1,1.87-2.37,0-1.23-.64-2.28-1.83-2.28a1.76,1.76,0,0,0-1.69,1.37,1.78,1.78,0,0,0-.08.45Z"/><path class="cls-1" d="M141.08,75.92l-.8-.83a3.53,3.53,0,0,1-2.51,1,2.42,2.42,0,0,1-2.63-2.4,2.84,2.84,0,0,1,1.67-2.51v0a3,3,0,0,1-.71-1.79,2.08,2.08,0,0,1,2.18-2.12,1.77,1.77,0,0,1,1.9,1.81c0,.91-.53,1.62-1.89,2.29v0c.73.84,1.54,1.77,2.09,2.38a6.36,6.36,0,0,0,.83-2.5h1A6.63,6.63,0,0,1,141,74.4l1.41,1.52Zm-1.35-1.47c-.51-.56-1.46-1.61-2.42-2.71a2.09,2.09,0,0,0-1.1,1.75A1.69,1.69,0,0,0,138,75.22,2.41,2.41,0,0,0,139.73,74.45Zm-2.61-5.24a2.46,2.46,0,0,0,.65,1.55c.87-.5,1.43-1,1.43-1.69a1,1,0,0,0-1-1.11A1.11,1.11,0,0,0,137.12,69.21Z"/><path class="cls-1" d="M4.44,83.65H1.12v3.1H4.83v.92H0V79.1H4.64V80H1.12v2.71H4.44Z"/><path class="cls-1" d="M6.24,83.18c0-.64,0-1.15,0-1.66h1l.06,1h0a2.26,2.26,0,0,1,2-1.15c.86,0,2.18.51,2.18,2.62v3.66H10.36V84.12c0-1-.37-1.81-1.42-1.81A1.61,1.61,0,0,0,7.36,84v3.7H6.24Z"/><path class="cls-1" d="M14.6,80v1.48h1.61v.85H14.6v3.32c0,.77.22,1.2.84,1.2a2.11,2.11,0,0,0,.65-.08l.05.85a2.94,2.94,0,0,1-1,.16,1.59,1.59,0,0,1-1.21-.48,2.4,2.4,0,0,1-.43-1.61V82.37h-1v-.85h1V80.37Z"/><path class="cls-1" d="M17.47,83.44c0-.73,0-1.35,0-1.92h1l.05,1.22h0a1.85,1.85,0,0,1,1.71-1.35,1.48,1.48,0,0,1,.31,0v1a2.24,2.24,0,0,0-.38,0,1.55,1.55,0,0,0-1.5,1.42,2.82,2.82,0,0,0,0,.52v3.28H17.47Z"/><path class="cls-1" d="M22.13,84.8a2,2,0,0,0,2.11,2.14,3.93,3.93,0,0,0,1.7-.32l.21.8a5,5,0,0,1-2.06.4,2.87,2.87,0,0,1-3-3.12c0-1.86,1.09-3.31,2.89-3.31a2.59,2.59,0,0,1,2.54,2.89,2.37,2.37,0,0,1,0,.52Zm3.28-.8a1.59,1.59,0,0,0-1.55-1.81A1.83,1.83,0,0,0,22.14,84Z"/><path class="cls-1" d="M27.88,83.53c0-.79,0-1.43-.05-2h1l.06,1h0a2.41,2.41,0,0,1,2.19-1.18c1.5,0,2.62,1.26,2.62,3.12,0,2.21-1.36,3.31-2.81,3.31a2.15,2.15,0,0,1-1.89-1h0v3.34H27.88ZM29,85.17a1.71,1.71,0,0,0,.05.46,1.73,1.73,0,0,0,1.68,1.31c1.18,0,1.87-1,1.87-2.38,0-1.22-.65-2.28-1.83-2.28a1.76,1.76,0,0,0-1.69,1.37,1.86,1.86,0,0,0-.08.45Z"/><path class="cls-1" d="M35.13,83.44c0-.73,0-1.35-.05-1.92h1l0,1.22h0a1.85,1.85,0,0,1,1.71-1.35,1.48,1.48,0,0,1,.31,0v1a2.24,2.24,0,0,0-.38,0,1.55,1.55,0,0,0-1.5,1.42,2.82,2.82,0,0,0,0,.52v3.28H35.13Z"/><path class="cls-1" d="M39.79,84.8a2,2,0,0,0,2.11,2.14,3.93,3.93,0,0,0,1.7-.32l.21.8a5,5,0,0,1-2.06.4,2.87,2.87,0,0,1-3-3.12c0-1.86,1.09-3.31,2.89-3.31a2.59,2.59,0,0,1,2.54,2.89,2.37,2.37,0,0,1,0,.52Zm3.28-.8a1.59,1.59,0,0,0-1.55-1.81A1.83,1.83,0,0,0,39.8,84Z"/><path class="cls-1" d="M45.54,83.18c0-.64,0-1.15,0-1.66h1l.06,1h0a2.28,2.28,0,0,1,2-1.15c.85,0,2.18.51,2.18,2.62v3.66H49.67V84.12c0-1-.37-1.81-1.43-1.81A1.65,1.65,0,0,0,46.66,84v3.7H45.54Z"/><path class="cls-1" d="M53.23,84.8a2,2,0,0,0,2.12,2.14,4,4,0,0,0,1.7-.32l.2.8a4.94,4.94,0,0,1-2.06.4,2.88,2.88,0,0,1-3-3.12c0-1.86,1.1-3.31,2.89-3.31a2.59,2.59,0,0,1,2.55,2.89,3.22,3.22,0,0,1,0,.52Zm3.29-.8A1.6,1.6,0,0,0,55,82.19,1.82,1.82,0,0,0,53.25,84Z"/><path class="cls-1" d="M64.14,86c0,.65,0,1.21,0,1.69h-1l-.06-1h0a2.29,2.29,0,0,1-2,1.15c-1,0-2.13-.55-2.13-2.7v-3.6h1.12v3.39c0,1.17.37,2,1.37,2a1.6,1.6,0,0,0,1.48-1,1.63,1.63,0,0,0,.1-.58V81.52h1.12Z"/><path class="cls-1" d="M66,83.44c0-.73,0-1.35,0-1.92h1l0,1.22h0a1.86,1.86,0,0,1,1.72-1.35,1.63,1.63,0,0,1,.31,0v1a2.3,2.3,0,0,0-.39,0,1.56,1.56,0,0,0-1.5,1.42,4.07,4.07,0,0,0,0,.52v3.28H66Z"/><path class="cls-1" d="M70,86.54A3,3,0,0,0,71.5,87c.81,0,1.19-.39,1.19-.91s-.32-.82-1.13-1.12c-1.12-.41-1.65-1-1.65-1.74A1.92,1.92,0,0,1,72,81.39a2.92,2.92,0,0,1,1.5.38l-.27.82A2.3,2.3,0,0,0,72,82.22c-.66,0-1,.38-1,.84s.35.74,1.15,1c1.06.4,1.62.93,1.62,1.85,0,1.09-.85,1.86-2.29,1.86a3.43,3.43,0,0,1-1.73-.44Z"/><path class="cls-1" d="M75.21,78.64h1.12V82.5h0a2.08,2.08,0,0,1,.81-.8,2.19,2.19,0,0,1,1.14-.31c.83,0,2.15.51,2.15,2.62v3.66H79.33V84.14c0-1-.37-1.82-1.42-1.82a1.61,1.61,0,0,0-1.5,1.11,1.29,1.29,0,0,0-.08.53v3.71H75.21Z"/><path class="cls-1" d="M83.52,79.79a.66.66,0,0,1-.71.68.65.65,0,0,1-.67-.68.68.68,0,0,1,.7-.7A.67.67,0,0,1,83.52,79.79Zm-1.24,7.88V81.52H83.4v6.15Z"/><path class="cls-1" d="M85.25,83.53c0-.79,0-1.43,0-2h1l.06,1h0a2.38,2.38,0,0,1,2.18-1.18c1.51,0,2.62,1.26,2.62,3.12,0,2.21-1.36,3.31-2.81,3.31a2.16,2.16,0,0,1-1.89-1h0v3.34H85.25Zm1.11,1.64a2.24,2.24,0,0,0,0,.46,1.74,1.74,0,0,0,1.68,1.31c1.19,0,1.87-1,1.87-2.38,0-1.22-.65-2.28-1.83-2.28a1.76,1.76,0,0,0-1.69,1.37,1.86,1.86,0,0,0-.08.45Z"/><path class="cls-1" d="M95.24,79.23A13.54,13.54,0,0,1,97.59,79a5,5,0,0,1,3.47,1.07,3.89,3.89,0,0,1,1.22,3.07,4.6,4.6,0,0,1-1.23,3.34,5.34,5.34,0,0,1-3.8,1.23,18.66,18.66,0,0,1-2-.1Zm1.1,7.58a8.9,8.9,0,0,0,1.12,0,3.29,3.29,0,0,0,3.65-3.64c0-2-1.13-3.3-3.47-3.3a6.73,6.73,0,0,0-1.3.11Z"/><path class="cls-1" d="M104.35,84.8a2,2,0,0,0,2.11,2.14,4,4,0,0,0,1.71-.32l.2.8a4.94,4.94,0,0,1-2.06.4,2.87,2.87,0,0,1-3-3.12c0-1.86,1.1-3.31,2.89-3.31a2.6,2.6,0,0,1,2.55,2.89,3.22,3.22,0,0,1,0,.52Zm3.28-.8a1.59,1.59,0,0,0-1.55-1.81A1.84,1.84,0,0,0,104.36,84Z"/><path class="cls-1" d="M110.54,81.52,111.75,85c.2.58.37,1.09.49,1.59h0c.14-.5.32-1,.53-1.59L114,81.52h1.17l-2.42,6.15h-1.06l-2.35-6.15Z"/><path class="cls-1" d="M116.73,84.8a2,2,0,0,0,2.11,2.14,3.93,3.93,0,0,0,1.7-.32l.21.8a5,5,0,0,1-2.06.4,2.87,2.87,0,0,1-3-3.12c0-1.86,1.09-3.31,2.89-3.31a2.59,2.59,0,0,1,2.54,2.89,2.37,2.37,0,0,1,0,.52ZM120,84a1.59,1.59,0,0,0-1.55-1.81A1.83,1.83,0,0,0,116.74,84Z"/><path class="cls-1" d="M122.48,78.64h1.12v9h-1.12Z"/><path class="cls-1" d="M131.06,84.55A3,3,0,0,1,128,87.82,2.94,2.94,0,0,1,125,84.65a3,3,0,0,1,3.06-3.26A2.91,2.91,0,0,1,131.06,84.55Zm-4.87.06c0,1.35.76,2.36,1.86,2.36s1.87-1,1.87-2.39c0-1-.53-2.35-1.85-2.35S126.19,83.45,126.19,84.61Z"/><path class="cls-1" d="M132.48,83.53c0-.79,0-1.43,0-2h1l.06,1h0a2.39,2.39,0,0,1,2.19-1.18c1.5,0,2.62,1.26,2.62,3.12,0,2.21-1.36,3.31-2.81,3.31a2.17,2.17,0,0,1-1.9-1h0v3.34h-1.11Zm1.11,1.64a1.72,1.72,0,0,0,1.72,1.77c1.19,0,1.88-1,1.88-2.38,0-1.22-.65-2.28-1.84-2.28a1.77,1.77,0,0,0-1.69,1.37,1.83,1.83,0,0,0-.07.45Z"/><path class="cls-1" d="M139.72,83.18c0-.64,0-1.15-.05-1.66h1l0,1h0a2.14,2.14,0,0,1,1.95-1.13,1.83,1.83,0,0,1,1.73,1.23h0a2.52,2.52,0,0,1,.7-.8,2.08,2.08,0,0,1,1.35-.43c.83,0,2,.54,2,2.67v3.61h-1.1V84.2c0-1.19-.44-1.89-1.33-1.89a1.48,1.48,0,0,0-1.34,1,2,2,0,0,0-.09.56v3.8h-1.09V84c0-1-.44-1.68-1.29-1.68a1.52,1.52,0,0,0-1.38,1.12,1.33,1.33,0,0,0-.09.54v3.7h-1.1Z"/><path class="cls-1" d="M151,84.8a2,2,0,0,0,2.11,2.14,4,4,0,0,0,1.7-.32l.2.8a4.94,4.94,0,0,1-2.06.4,2.87,2.87,0,0,1-3-3.12c0-1.86,1.09-3.31,2.88-3.31a2.59,2.59,0,0,1,2.55,2.89,3.22,3.22,0,0,1,0,.52Zm3.28-.8a1.6,1.6,0,0,0-1.56-1.81A1.83,1.83,0,0,0,151,84Z"/><path class="cls-1" d="M156.72,83.18c0-.64,0-1.15-.05-1.66h1l.07,1h0a2.28,2.28,0,0,1,2-1.15c.85,0,2.17.51,2.17,2.62v3.66h-1.12V84.12c0-1-.37-1.81-1.42-1.81a1.61,1.61,0,0,0-1.5,1.14,1.39,1.39,0,0,0-.08.52v3.7h-1.12Z"/><path class="cls-1" d="M165.08,80v1.48h1.61v.85h-1.61v3.32c0,.77.22,1.2.85,1.2a2,2,0,0,0,.64-.08l.05.85a2.89,2.89,0,0,1-1,.16,1.59,1.59,0,0,1-1.21-.48,2.4,2.4,0,0,1-.43-1.61V82.37h-1v-.85h1V80.37Z"/><path class="cls-2" d="M243.68,82.18c1.46,2.08,3.32,3.28,4.14,2.7s.3-2.73-1.16-4.79-3.32-3.28-4.13-2.7S242.22,80.12,243.68,82.18Z"/><path class="cls-3" d="M202.9,116.66c1.42,2,3.89,2.76,5.52,1.63s1.79-3.71.36-5.75-3.88-2.77-5.52-1.62S201.48,114.63,202.9,116.66Z"/><path class="cls-3" d="M215.7,123.27c2.46.59,4.71,0,5-1.26s-1.43-2.83-3.89-3.42-4.71,0-5,1.26S213.23,122.66,215.7,123.27Z"/><path class="cls-3" d="M228.29,118.58c3.06-.84,5.13-3.07,4.61-5s-3.44-2.74-6.51-1.89-5.15,3.07-4.63,5S225.21,119.44,228.29,118.58Z"/><path class="cls-3" d="M226.77,123.5c2.1-.51,3.73-1.25,3.62-1.66s-1.88-.33-4,.17-3.74,1.25-3.64,1.66S224.66,124,226.77,123.5Z"/><path class="cls-4" d="M250.84,95.33c-.17-2.16-.66-3.88-1.08-3.85s-.62,1.81-.44,4,.65,3.88,1.07,3.85S251,97.49,250.84,95.33Z"/><path class="cls-4" d="M232.74,112.56c2,1.66,5.35.89,7.56-1.71s2.42-6.08.46-7.74-5.35-.9-7.56,1.71S230.78,110.89,232.74,112.56Z"/><path class="cls-2" d="M235.33,95.57a5.56,5.56,0,1,0-.56-7.77A5.52,5.52,0,0,0,235.33,95.57Z"/><path class="cls-5" d="M220.37,81.82c-7.46-.91-14.94-1.32-22.41-1.54C193.6,83.63,193,90.81,188.81,91a4.59,4.59,0,0,1-1.58-.21c-2.27-1.1-1.57-3.41-1.4-4.91.1-.88,0-1.48-1-1.36a32.71,32.71,0,0,1-1.11,3.39,33.47,33.47,0,0,1-4.08,7.4l-.1.15h0a82.29,82.29,0,0,1-6.91,8.9c-7.86,8.46-16.56,10.47-24.91,8.25a33.75,33.75,0,0,0,11.21,5.33,75.91,75.91,0,0,0,22.52-18.55,70.72,70.72,0,0,1-19.53,19.31c.83.18,1.65.33,2.49.48a75.06,75.06,0,0,0,18.22-18.59,70.63,70.63,0,0,1-15.43,19c.8.09,1.61.15,2.42.19a74.33,74.33,0,0,0,14.29-18,71,71,0,0,1-11.79,18.08c.79,0,1.58,0,2.35-.08a72.74,72.74,0,0,0,10.8-17,70.68,70.68,0,0,1-8.59,16.81c.79-.1,1.55-.22,2.3-.36a72.81,72.81,0,0,0,7.75-15.58,71.27,71.27,0,0,1-5.84,15.14c.76-.19,1.52-.44,2.25-.69a73.84,73.84,0,0,0,5.12-13.71,72.4,72.4,0,0,1-3.54,13.06,17.17,17.17,0,0,0,2.21-1.16,73,73,0,0,0,2.9-11.28,73.86,73.86,0,0,1-1.66,10.46,16,16,0,0,0,1.29-1c3-2.71,4.73-6.8,6.67-11.22,5.13-3.92,10.2-1.26,15.34-5.17-.81-4-7.06.39-9.95-2.62,5-1.52,10,.86,15-2.3-3.09-3.79-9.55.67-10.55-3.25,4.36-.63,8.7,1.42,13.11-1.71-1-4.24-10.24,1.13-11.18-3.88C211.36,82.63,221,87.58,220.37,81.82Z"/><path class="cls-1" d="M264.82,26.21a94.17,94.17,0,0,1-25.7,20.23,100.35,100.35,0,0,0,25.27-23.95c-.17-1.13-.37-2.24-.59-3.35a94.23,94.23,0,0,1-26.28,25.69,101.26,101.26,0,0,0,25.34-29.71A45.6,45.6,0,0,0,256,0c2.8,11.21-.11,22.81-11.58,33.16L214,59.77v0c-12.36,10-30,10-24.81,26.85,4.75-3.71,4.31-8.13,8.23-10.49,5.56-3.37,19.22,1.67,24.3.93,1-.7,2.15-2.74,3.23-4.24,10-5.84,25.09-9,32.47-16.91a16.73,16.73,0,0,0,1.42-1.71,97.42,97.42,0,0,1-14,2,96.76,96.76,0,0,0,15.17-3.64,24.72,24.72,0,0,0,1.59-2.92A96.86,96.86,0,0,1,244,54.06a96.71,96.71,0,0,0,18.44-6.55c.37-1,.71-2,1-3A96.26,96.26,0,0,1,243,52a98.49,98.49,0,0,0,21-10c.22-1,.39-2,.54-3.06A95.27,95.27,0,0,1,241.87,50a98,98,0,0,0,23-14.08c.08-1,.13-2.09.15-3.15a95.17,95.17,0,0,1-24.47,15.38A98.87,98.87,0,0,0,265,29.46C265,28.38,264.91,27.3,264.82,26.21Z"/><path class="cls-1" d="M69.36,26.91H61l0-.1a8.89,8.89,0,0,0-3-4.58,10.68,10.68,0,0,0-7.12-2.58,10.94,10.94,0,0,0-7.22,2.58,8.9,8.9,0,0,0-3,4.87l0,.1H33.42v-.1h0V22.41a2.82,2.82,0,0,0-2.81-2.78,2.85,2.85,0,0,0-2.82,2.85V36.62l-.19-.09a13,13,0,0,0-5.89-1.36h-.14V32.81l-.42-.09a11,11,0,0,1-4.55-2,7.21,7.21,0,0,1-2.36-3.29l-.06-.18h7.22V22.55H13.71v-1a2.82,2.82,0,0,0-5.63.07v.92H.48v4.72h7l0,.17a6.76,6.76,0,0,1-2.18,3.29,10.4,10.4,0,0,1-4.48,2l-.42.09V38l.6-.06a14.87,14.87,0,0,0,5.14-1.6,11.62,11.62,0,0,0,4.78-4.15L11,32l.11.2a10.55,10.55,0,0,0,4,3.86l.69.45-.61.35A13.12,13.12,0,0,0,13,38.38a10.71,10.71,0,0,0-3.92,8.54A10.84,10.84,0,0,0,13,55.5a12.76,12.76,0,0,0,8.68,3.21,12.9,12.9,0,0,0,8.68-3.21,10.77,10.77,0,0,0,4-8.58,11,11,0,0,0-1-4.57V32.17h7.43l0,.09a9.05,9.05,0,0,0,2.77,3.93,10.89,10.89,0,0,0,7.2,2.61A10.7,10.7,0,0,0,58,36.19a9.11,9.11,0,0,0,2.91-4.26l0-.09h8.44v12.1H49.59V41H44V53.57A3.32,3.32,0,0,0,44.76,56a3,3,0,0,0,2,.58H72.24a2.79,2.79,0,0,0,2-.61A3.23,3.23,0,0,0,75,53.53V48.61h9.48v5A3.33,3.33,0,0,0,85.21,56a3,3,0,0,0,2,.58H115.9V40h14.47l-.27.24a9.18,9.18,0,0,0-3.26,7.07,10.41,10.41,0,0,0,4,8.36,13.31,13.31,0,0,0,8.84,3.16,12.81,12.81,0,0,0,8.59-3.16,10.4,10.4,0,0,0,4-8.36A9.23,9.23,0,0,0,149,40.25l-.26-.24h23.42v7.46h5.39V40h10.15v2.92h-6.92v4.43h6.88v4.25H167.91V44.12h-5.55v9.45a3.27,3.27,0,0,0,.73,2.43,3,3,0,0,0,2,.58h28.2V22.41a2.82,2.82,0,0,0-5.63.07V35.25H178l.34-.24a7.47,7.47,0,0,0,3.33-6.27,8.22,8.22,0,0,0-3.21-6.68,10.61,10.61,0,0,0-7-2.49,11,11,0,0,0-7.17,2.49A8.16,8.16,0,0,0,161,28.74,7.48,7.48,0,0,0,164.35,35l.34.24H148.22l.18-.22A6.63,6.63,0,0,0,150,30.72a6,6,0,0,0-.4-2.17,7.54,7.54,0,0,0-1.08-1.9l-.17-.22h7.81V22H142.61v-.21a3,3,0,0,0-6,.07V22H123.19v4.47h7.37l-.14.21a8.62,8.62,0,0,0-1,1.92,8.05,8.05,0,0,0-.31,2.16A6.64,6.64,0,0,0,130.68,35l.17.22H115.91V22.41a2.82,2.82,0,0,0-5.63.07V36.14h0V51.61H90.12V43.85H75V22.41a2.82,2.82,0,0,0-5.64.07M26.23,51.39a6.54,6.54,0,0,1-9,0,6,6,0,0,1,0-8.93,6.52,6.52,0,0,1,4.46-1.72,6.58,6.58,0,0,1,4.51,1.72,6.29,6.29,0,0,1,1.52,2.1l.07.18a6,6,0,0,1,.41,2.19A5.83,5.83,0,0,1,26.23,51.39ZM50.82,33.77a4.72,4.72,0,0,1-4.9-4.51,4.92,4.92,0,0,1,9.81,0A4.72,4.72,0,0,1,50.82,33.77ZM69.4,51.65H49.59v-3H69.4Zm66.82-23.89a4.86,4.86,0,0,1,3.4-1.17,4.8,4.8,0,0,1,3.32,1.18,3.83,3.83,0,0,1,1.34,3,3.93,3.93,0,0,1-1.35,3,4.67,4.67,0,0,1-3.31,1.25,4.82,4.82,0,0,1-3.42-1.27,3.88,3.88,0,0,1-1.34-3A3.82,3.82,0,0,1,136.22,27.76Zm8.09,24.16a6.8,6.8,0,0,1-4.78,1.87,6.94,6.94,0,0,1-4.83-1.88,6.39,6.39,0,0,1,0-9.47,7,7,0,0,1,4.83-1.84,6.89,6.89,0,0,1,4.79,1.84,6.31,6.31,0,0,1,0,9.48Zm30.24-20a4.57,4.57,0,0,1-3.31,1.36,4.66,4.66,0,0,1-3.42-1.38,4.27,4.27,0,0,1-1.33-3.16,4.6,4.6,0,0,1,1.32-3.27,4.75,4.75,0,0,1,3.43-1.35,4.63,4.63,0,0,1,3.32,1.34A4.43,4.43,0,0,1,176,28.74,4.24,4.24,0,0,1,174.55,31.92Z"/><path class="cls-1" d="M90.34,26.33a11.06,11.06,0,0,1-2,5.43,8.52,8.52,0,0,1-5.16,2.89l-.43.09v5.32l.61-.08a14.49,14.49,0,0,0,5.18-1.79,12.47,12.47,0,0,0,4.77-4.61l.12-.21.12.21A11.56,11.56,0,0,0,98,38.15,14.4,14.4,0,0,0,103.51,40l.61.08V34.74l-.43-.09a8.73,8.73,0,0,1-5.2-2.88,10.71,10.71,0,0,1-2-5.44v-.15H104v-5H82.65v5h7.71Z"/></g></g></svg>