<svg xmlns="http://www.w3.org/2000/svg" viewBox="0 0 47.11 21.04"><defs><style>.cls-1{fill:#3a2780;}.cls-2{fill:#f4bc1b;}.cls-3{fill:#fff;}</style></defs><title>logo자산 4</title><g id="레이어_2" data-name="레이어 2"><g id="레이어_1-2" data-name="레이어 1"><path class="cls-1" d="M25.91,12.34v4.93a1.69,1.69,0,0,1-.15.67,1.16,1.16,0,0,1-.36.46,1.08,1.08,0,0,1-.7.21A1.11,1.11,0,0,1,24,18.4a1.14,1.14,0,0,1-.35-.46,1.7,1.7,0,0,1-.15-.67V12.34h.91v4.93a.54.54,0,0,0,.13.39.24.24,0,0,0,.18.07A.27.27,0,0,0,25,17.5a.58.58,0,0,0,0-.23V12.34Z"/><path class="cls-1" d="M29.46,14a2,2,0,0,0-.07-.61c-.06-.17-.15-.29-.3-.29s-.31.25-.31.62a1.4,1.4,0,0,0,.23.67c.14.24.31.48.49.74a9.57,9.57,0,0,1,.58.94,2.13,2.13,0,0,1,.27,1,2,2,0,0,1-.26,1.09,1.33,1.33,0,0,1-2.1-.08,2.65,2.65,0,0,1-.23-1.25l.89-.08a2.34,2.34,0,0,0,.08.72c.06.2.16.34.35.34s.37-.29.37-.68a1.54,1.54,0,0,0-.24-.68L29,16c-.18-.25-.37-.54-.57-.85a3.54,3.54,0,0,1-.45-1,1.65,1.65,0,0,1-.08-.5,1.73,1.73,0,0,1,.27-1,1.11,1.11,0,0,1,.92-.47,1.06,1.06,0,0,1,1,.55,2.42,2.42,0,0,1,.23,1.1Z"/><path class="cls-1" d="M47.11,11.16H19.76V0H47.11ZM21,9.88H45.83V1.28H21Z"/><path class="cls-1" d="M21,21H0V0H21Z"/><path class="cls-1" d="M34.08,21H19.76V9.88H34.08ZM21,19.76H32.79v-8.6H21Z"/><path class="cls-1" d="M23.54,2.48h2.08v.94H24.45V5h.84V6h-.84v1.7h1.17v.94H23.54Z"/><path class="cls-1" d="M29.47,2.48h.89l-.94,6.2H28.5l-.94-6.2h.89l.46,3.41,0,.26H29l0-.26Z"/><path class="cls-1" d="M32.45,2.48h2.08v.94H33.36V5h.84V6h-.84v1.7h1.17v.94H32.45Z"/><path class="cls-1" d="M37.69,5.45l-.08-.29h-.05V8.68h-.84V2.48h.81l.89,3.23L38.5,6h.05V2.48h.84v6.2h-.81Z"/><path class="cls-1" d="M41.43,3.42V2.48h2.63v.94H43.2V8.68h-.91V3.42Z"/><rect class="cls-2" x="6.26" y="5.41" width="8.26" height="2.39"/><polygon class="cls-3" points="11.74 11.72 6.26 11.72 6.26 9.32 12.2 9.32 11.74 11.72"/><rect class="cls-3" x="6.26" y="13.24" width="8.45" height="2.39"/></g></g></svg>