<svg xmlns="http://www.w3.org/2000/svg" viewBox="0 0 130.38 80.32"><defs><style>.cls-1{fill:#4d4d4d;}.cls-2{fill:#1a1a1a;}.cls-3{fill:#0a51a1;}.cls-4{fill:#01a0c6;}.cls-5{fill:#33701f;}.cls-6{fill:#4dac27;}</style></defs><title>Asset 1</title><g id="Layer_2" data-name="Layer 2"><g id="Layer_1-2" data-name="Layer 1"><path class="cls-1" d="M0,79V73.72H.71l1.75,4.59,1.75-4.59h.71V79H4.44V74.43h0L2.7,79H2.23L.5,74.43h0V79Z"/><path class="cls-1" d="M9.4,79V73.72h.48V79Z"/><path class="cls-1" d="M14.36,79V73.72h2.32a1.83,1.83,0,0,1,1.09.33,1.18,1.18,0,0,1,.46,1,1.53,1.53,0,0,1-.25.86,1.15,1.15,0,0,1-.75.48h0a.86.86,0,0,1,.68.39,1.88,1.88,0,0,1,.21.79c0,.18,0,.42,0,.71a1.09,1.09,0,0,0,.2.63h-.54a.87.87,0,0,1-.1-.4c0-.17,0-.3,0-.41a4.52,4.52,0,0,0-.18-1c-.1-.32-.38-.48-.84-.46H14.84V79Zm.48-4.8v2.06h1.8a1.16,1.16,0,0,0,.77-.28.91.91,0,0,0,.33-.74,1,1,0,0,0-.28-.76,1.09,1.09,0,0,0-.82-.28Z"/><path class="cls-1" d="M22.83,79l2.05-5.23h.54l2,5.23h-.52l-.62-1.62H24L23.35,79Zm2.3-4.73-1,2.68h2Z"/><path class="cls-1" d="M31.88,79V73.72h3.51v.43h-3V76H35.2v.42H32.37v2.07h3.05V79Z"/><path class="cls-1" d="M39.9,79V73.72h.48V76h3V73.72h.48V79h-.48V76.42h-3V79Z"/><path class="cls-1" d="M50.75,79.06a2.08,2.08,0,0,1-1.8-.82,3.18,3.18,0,0,1-.6-1.9,3.14,3.14,0,0,1,.6-1.9,2.36,2.36,0,0,1,3.59,0,3.2,3.2,0,0,1,.59,1.9,3.24,3.24,0,0,1-.59,1.9A2.07,2.07,0,0,1,50.75,79.06Zm0-5a1.59,1.59,0,0,0-1.46.73,2.94,2.94,0,0,0,0,3.16,1.83,1.83,0,0,0,2.91,0,3,3,0,0,0,0-3.16A1.6,1.6,0,0,0,50.75,74Z"/><path class="cls-1" d="M57.61,79V73.72h.48v4.81h2.84V79Z"/><path class="cls-1" d="M65.41,79V73.72h1.75a2.32,2.32,0,0,1,1.74.68,3.42,3.42,0,0,1,0,3.87,2.28,2.28,0,0,1-1.74.68Zm.48-4.8v4.38h1A2.15,2.15,0,0,0,68.51,78a3.09,3.09,0,0,0,0-3.37,2.11,2.11,0,0,0-1.59-.5Z"/><path class="cls-1" d="M74,79V73.72h.48V79Z"/><path class="cls-1" d="M78.93,79V73.72h.54l3,4.43h0V73.72h.48V79h-.54l-3-4.42h0V79Z"/><path class="cls-1" d="M92,76.29V79h-.36l-.06-1h0a1.64,1.64,0,0,1-.72.81,2.15,2.15,0,0,1-1,.25,2.08,2.08,0,0,1-1.8-.82,3.18,3.18,0,0,1-.6-1.9,3.14,3.14,0,0,1,.6-1.9,2.08,2.08,0,0,1,1.8-.83,2.28,2.28,0,0,1,1.39.44,1.91,1.91,0,0,1,.73,1.3h-.48a1.54,1.54,0,0,0-.49-.89A1.57,1.57,0,0,0,89.79,74a1.6,1.6,0,0,0-1.46.73,3,3,0,0,0,0,3.16,1.83,1.83,0,0,0,2.76.17,2,2,0,0,0,.45-1.37H89.82v-.43Z"/><path class="cls-1" d="M98.47,79.06A2.35,2.35,0,0,1,97,78.62a1.52,1.52,0,0,1-.54-1.39h.49a1.14,1.14,0,0,0,.47,1.11,2.23,2.23,0,0,0,1.18.3,1.81,1.81,0,0,0,.87-.25.83.83,0,0,0,.47-.82.71.71,0,0,0-.34-.65,3,3,0,0,0-.7-.29l-1.14-.29A2.23,2.23,0,0,1,97,76a1,1,0,0,1-.35-.88,1.9,1.9,0,0,1,.34-.93,1.56,1.56,0,0,1,1.41-.54,2.18,2.18,0,0,1,1.32.41,1.38,1.38,0,0,1,.56,1.22h-.48a1.13,1.13,0,0,0-.44-.91,1.63,1.63,0,0,0-.95-.3,1.72,1.72,0,0,0-.88.23.87.87,0,0,0-.39.82.63.63,0,0,0,.23.54,1.37,1.37,0,0,0,.53.25l1.24.32a2.77,2.77,0,0,1,.93.44,1.1,1.1,0,0,1,.38.94,2.32,2.32,0,0,1-.29.88C99.93,78.86,99.38,79.06,98.47,79.06Z"/><path class="cls-1" d="M104.92,78.62h.6v.78a1.22,1.22,0,0,1-.16.57.77.77,0,0,1-.47.35V80a.49.49,0,0,0,.26-.25.79.79,0,0,0,.07-.37h-.3Z"/><path class="cls-1" d="M110,79V73.72h.48v4.81h2.85V79Z"/><path class="cls-1" d="M117.79,74.15v-.43h4v.43h-1.76V79h-.49v-4.8Z"/><path class="cls-1" d="M126.29,79V73.72H128a2.32,2.32,0,0,1,1.74.68,3.42,3.42,0,0,1,0,3.87A2.28,2.28,0,0,1,128,79Zm.48-4.8v4.38h1a2.14,2.14,0,0,0,1.59-.51,3.09,3.09,0,0,0,0-3.37,2.1,2.1,0,0,0-1.59-.5Z"/><path class="cls-2" d="M0,57.63H6.7v7.9a1.06,1.06,0,0,1-.24.8.88.88,0,0,1-.67.2H.89a.9.9,0,0,1-.66-.2,1.11,1.11,0,0,1-.23-.8Zm4.86,1.61h-3v5.68h3Zm3.83-1.61h1.89V69.15H8.69Z"/><path class="cls-2" d="M17.21,59.3H13.67V57.63h5.44v5.08H15.56v2.15h4.56v1.67H14.57a.93.93,0,0,1-.67-.2,1.16,1.16,0,0,1-.23-.8V61.11h3.54Z"/><polygon class="cls-2" points="22.45 59.33 21.67 59.33 21.67 69.03 19.91 69.03 19.91 57.63 21.67 57.63 21.67 57.63 22.45 57.63 22.45 57.63 24.25 57.63 24.25 69.03 22.45 69.03 22.45 59.33"/><polygon class="cls-2" points="28.8 65.4 28.8 61.6 30.67 61.6 30.67 65.4 36.04 65.4 36.04 57.4 37.93 57.4 37.93 57.4 39.44 57.4 39.44 58.91 37.93 58.91 37.93 68.98 36.04 68.98 36.04 67.07 26.96 67.07 26.96 65.4 28.8 65.4"/><polygon class="cls-2" points="32.36 64.46 32.36 59.07 27.48 59.07 27.48 57.4 34.24 57.4 34.24 64.46 32.36 64.46"/><path class="cls-2" d="M47.19,60a1.91,1.91,0,0,1,.28.55,1.81,1.81,0,0,1,.12.64,2.56,2.56,0,0,1-1,2,3.14,3.14,0,0,1-2.12.77,3.22,3.22,0,0,1-2.15-.77,2.54,2.54,0,0,1-1-2,2.28,2.28,0,0,1,.09-.63,2.71,2.71,0,0,1,.29-.56H41V58.44h2.51v-1h2v1H48V60Zm4.41,9H49.72V66.21H41.65V64.54h10Zm-8-8.63a1.12,1.12,0,0,0-.37.86,1.07,1.07,0,0,0,.37.82,1.24,1.24,0,0,0,.9.36,1.22,1.22,0,0,0,.88-.36,1.08,1.08,0,0,0,.38-.82,1.13,1.13,0,0,0-.38-.86,1.28,1.28,0,0,0-.88-.33A1.3,1.3,0,0,0,43.61,60.35Zm8-1.39v4.69H49.72V57.4h3.4V59Z"/><path class="cls-2" d="M61.24,57.4v1.29Q61.24,63,59,65a6.83,6.83,0,0,1-4.25,1.53V64.66a4.39,4.39,0,0,0,3.54-1.61,6.39,6.39,0,0,0,1.09-4H54.87V57.4Zm2.15,0h1.88V69H63.39Z"/><polygon class="cls-2" points="72.73 64.12 72.73 63.21 67.99 63.21 67.99 61.7 79.34 61.7 79.34 63.21 74.6 63.21 74.6 64.12 72.73 64.12"/><path class="cls-2" d="M74.69,57.4A1.71,1.71,0,0,0,75.89,59a8.34,8.34,0,0,0,3.06.53v1.57a13.32,13.32,0,0,1-3-.39,4.22,4.22,0,0,1-2.24-1.17,4.3,4.3,0,0,1-2.25,1.17,12.71,12.71,0,0,1-3,.38V59.54a8.74,8.74,0,0,0,3-.54,1.71,1.71,0,0,0,1.2-1.6Z"/><path class="cls-2" d="M77.07,65.19h-8.7V63.72H79V67H70.26v.47H79V69H69.28a1,1,0,0,1-.68-.2,1.16,1.16,0,0,1-.23-.8V65.63h8.7Z"/><path class="cls-2" d="M88.87,59.07H86.41a9.88,9.88,0,0,0,.75,4.07,2.63,2.63,0,0,0,1.89,1.5v1.85a4.35,4.35,0,0,1-2.2-.86,4.73,4.73,0,0,1-1.41-1.95,4.64,4.64,0,0,1-1.51,1.95,4.51,4.51,0,0,1-2.07.86V64.65a2.65,2.65,0,0,0,1.87-1.51,9.89,9.89,0,0,0,.76-4.07H82V57.4h6.85Z"/><rect class="cls-2" x="90.74" y="57.4" width="1.88" height="11.58"/><path class="cls-2" d="M100.06,69V65.24H95.34V63.57h11.35v1.67H102V69Zm2.13-9.91c0,.51.43.92,1.21,1.23a9.14,9.14,0,0,0,2.9.48v1.68a15.25,15.25,0,0,1-3-.36A4,4,0,0,1,101,60.89a4.09,4.09,0,0,1-2.38,1.21,15.21,15.21,0,0,1-2.91.36V60.79a8.8,8.8,0,0,0,2.9-.47c.78-.3,1.19-.72,1.2-1.25h-4.1V57.4H106.3v1.67Z"/><path class="cls-2" d="M112.32,70.07a4.38,4.38,0,0,1-2.44-2.48,11.26,11.26,0,0,1-.63-4.36,10.72,10.72,0,0,1,.71-4.29,4.3,4.3,0,0,1,2.36-2.34v2.11a2.77,2.77,0,0,0-1,2,12.69,12.69,0,0,0-.22,2.59,12.54,12.54,0,0,0,.22,2.63,3.15,3.15,0,0,0,1,2.11Z"/><path class="cls-2" d="M118.87,69V65.24h-4.73V63.57h11.35v1.67h-4.74V69ZM121,59.07c0,.51.43.92,1.21,1.23a9.14,9.14,0,0,0,2.9.48v1.68a15.35,15.35,0,0,1-2.95-.36,4,4,0,0,1-2.34-1.21,4.09,4.09,0,0,1-2.37,1.21,15.42,15.42,0,0,1-2.91.36V60.79a8.73,8.73,0,0,0,2.89-.47c.79-.3,1.19-.72,1.2-1.25h-4.09V57.4H125.1v1.67Z"/><path class="cls-2" d="M128.36,65.92a15.95,15.95,0,0,0,0-5.22,2.77,2.77,0,0,0-1-2V56.64A4.36,4.36,0,0,1,129.66,59a10.59,10.59,0,0,1,.72,4.3,11.66,11.66,0,0,1-.64,4.36,4.32,4.32,0,0,1-2.44,2.48V68A3.19,3.19,0,0,0,128.36,65.92Z"/><polygon class="cls-3" points="64.53 22.87 64.53 35.53 51.88 35.53 51.88 35.45 42.98 44.35 42.98 44.43 73.43 44.43 73.43 13.97 73.35 13.97 64.45 22.87 64.53 22.87"/><polygon class="cls-4" points="42.98 44.35 51.88 35.45 51.88 22.87 64.45 22.87 73.35 13.97 42.98 13.97 42.98 44.35"/><polygon points="76.65 10.68 76.73 10.68 76.73 10.6 76.65 10.68"/><polygon class="cls-5" points="87.32 0 76.73 10.6 76.73 10.68 76.73 44.43 87.4 44.43 87.4 10.68 87.4 0 87.32 0"/><polygon class="cls-6" points="76.73 0 42.98 0 42.98 10.68 76.65 10.68 76.73 10.6 87.32 0 76.73 0"/></g></g></svg>