<svg xmlns="http://www.w3.org/2000/svg" viewBox="0 0 59.51 16.92"><defs><style>.cls-1{fill:#e37d10;}.cls-2{fill:#42a438;}.cls-3{fill:#fff;}</style></defs><title>logo자산 3</title><g id="레이어_2" data-name="레이어 2"><g id="레이어_1-2" data-name="레이어 1"><polygon class="cls-1" points="0 6.9 2.73 6.9 2.73 10.47 6.32 10.47 6.32 6.9 9.05 6.9 9.05 16.71 6.32 16.71 6.32 12.67 2.73 12.67 2.73 16.71 0 16.71 0 6.9"/><path class="cls-1" d="M12.73,13.71a1.57,1.57,0,0,0,1.7,1.62,1.5,1.5,0,0,0,1.42-.78h2.33c-.46,1.65-2.08,2.36-3.78,2.36-2.48,0-4.17-1.4-4.17-3.79a3.89,3.89,0,0,1,4.11-3.75c2.73,0,4.09,1.92,4,4.34Zm3.1-1.31h0A1.49,1.49,0,0,0,14.35,11a1.6,1.6,0,0,0-1.61,1.45Z"/><rect class="cls-1" x="19.66" y="6.9" width="2.5" height="9.81"/><rect class="cls-1" x="24" y="6.9" width="2.49" height="9.81"/><path class="cls-1" d="M31.51,9.37a3.78,3.78,0,1,1,0,7.55,3.78,3.78,0,1,1,0-7.55Zm0,5.76h0c1.16,0,1.53-1.07,1.53-2s-.37-2-1.53-2S30,12.24,30,13.15,30.35,15.13,31.51,15.13Z"/><path class="cls-1" d="M36.49,7.09h2.9c2.52.07,3.85,1.5,3.85,4.72s-1.33,4.84-3.85,4.91h-2.9Zm.8,8.83H39c2.41,0,3.45-1.18,3.45-4.11S41.4,7.87,39,7.88h-1.7Z"/><circle class="cls-2" cx="53.65" cy="14.02" r="1.09"/><circle class="cls-2" cx="53.65" cy="5.86" r="5.86"/><path class="cls-3" d="M50,6.7l1,.13a1.69,1.69,0,0,1-.26.61,1.23,1.23,0,0,1-.46.4,1.54,1.54,0,0,1-.71.14,2.22,2.22,0,0,1-.69-.09,1.15,1.15,0,0,1-.48-.3,1.56,1.56,0,0,1-.32-.49,2.08,2.08,0,0,1-.11-.74,2,2,0,0,1,.14-.8,1.44,1.44,0,0,1,.28-.42,1.24,1.24,0,0,1,.36-.28,1.69,1.69,0,0,1,.75-.14,1.52,1.52,0,0,1,1,.27,1.45,1.45,0,0,1,.47.8L50,6a.55.55,0,0,0-.16-.3.47.47,0,0,0-.31-.1.47.47,0,0,0-.4.21,1.09,1.09,0,0,0-.15.64A1,1,0,0,0,49.1,7a.47.47,0,0,0,.39.2.47.47,0,0,0,.33-.12A.72.72,0,0,0,50,6.7Z"/><path class="cls-3" d="M51.79,7.61a1.66,1.66,0,0,1-.48-1.24,1.73,1.73,0,0,1,.4-1.18A1.55,1.55,0,0,1,54,5.27a1.76,1.76,0,0,1,.32,1.08,1.73,1.73,0,0,1-.4,1.18,1.56,1.56,0,0,1-2.13.08Zm.53-1.24h0a1.06,1.06,0,0,0,.14.61.42.42,0,0,0,.71,0,1.12,1.12,0,0,0,.14-.63,1,1,0,0,0-.14-.6.42.42,0,0,0-.35-.2.43.43,0,0,0-.36.2A1.06,1.06,0,0,0,52.31,6.37Z"/><path class="cls-3" d="M54.81,4.8h.94v.46a1.36,1.36,0,0,1,.41-.41,1,1,0,0,1,.5-.12.85.85,0,0,1,.5.13,1,1,0,0,1,.3.39,1.59,1.59,0,0,1,.43-.42,1,1,0,0,1,.48-.11A.79.79,0,0,1,59,5a1.5,1.5,0,0,1,.23.93v2h-1V6.14a.59.59,0,0,0-.07-.31.3.3,0,0,0-.25-.16.33.33,0,0,0-.28.15.87.87,0,0,0-.11.49V7.92h-1V6.2a1.26,1.26,0,0,0,0-.28.38.38,0,0,0-.11-.19.27.27,0,0,0-.19-.07.34.34,0,0,0-.28.16.9.9,0,0,0-.11.51V7.92h-1Z"/><path class="cls-1" d="M44.34,7.09h2.19a7.21,7.21,0,0,0,.22.79H45.14v8h1.71c2.36,0,3.41-1.14,3.45-4a7.16,7.16,0,0,0,.79.36c-.14,2.88-1.46,4.33-3.85,4.4h-2.9Z"/></g></g></svg>