<svg xmlns="http://www.w3.org/2000/svg" viewBox="0 0 70.26 19.11"><defs><style>.cls-1{fill:#98d3ee;}.cls-2{fill:#1ea1da;}.cls-3{fill:#1c9ed7;}.cls-4{fill:#1d9fd9;}.cls-5{fill:#209ed8;}.cls-6{fill:#1e9fd8;}.cls-7{fill:#1f9dd6;}.cls-8{fill:#1c9cd5;}.cls-9{fill:#1b9bd3;}.cls-10{fill:#1898cf;}</style></defs><title>logo자산 6</title><g id="레이어_2" data-name="레이어 2"><g id="레이어_1-2" data-name="레이어 1"><path class="cls-1" d="M68.19,8.51c-.64.78-1.41,1.45-2.12,2.16q-2.7,2.71-5.43,5.4a4.11,4.11,0,0,1-7-3,3.82,3.82,0,0,1,1.1-2.64q3.78-3.78,7.59-7.54a.33.33,0,0,1,.09,0c.1.26-.08.45-.15.66A4.1,4.1,0,0,0,66.9,8.86,6.5,6.5,0,0,1,68.19,8.51Z"/><path class="cls-2" d="M68.19,8.51a6.5,6.5,0,0,0-1.29.35,4.1,4.1,0,0,1-4.66-5.37c.07-.21.26-.4.15-.66h0c.09,0,.12,0,.12-.11h0c.09,0,.1-.07.11-.14a4.2,4.2,0,0,1,5-1.56A4.09,4.09,0,0,1,69.1,7.7c-.24.25-.5.46-.76.69-.07,0-.16,0-.17.12Z"/><path class="cls-3" d="M1.53,2.75A2.17,2.17,0,0,1,3.19,2.2,1.8,1.8,0,0,1,5,3.77,8.52,8.52,0,0,1,5,6.69,2,2,0,0,1,1.91,8c-.17-.1-.25-.32-.48.07s-.81.14-1.22.1S0,7.83,0,7.64C0,5.29,0,2.94,0,.59,0,.15.11,0,.57,0c1,0,1,0,1,1C1.53,1.53,1.53,2.08,1.53,2.75ZM3.6,5.25a3.63,3.63,0,0,0-.1-1,.87.87,0,0,0-.91-.7.87.87,0,0,0-1,.71,4.45,4.45,0,0,0,0,2A.87.87,0,0,0,2.57,7a.88.88,0,0,0,.93-.74A3.81,3.81,0,0,0,3.6,5.25Z"/><path class="cls-4" d="M25.82,7.8c0,.78,0,1.48,0,2.18,0,.28-.08.36-.37.37-1.12,0-1.12,0-1.12-1.08,0-2.17,0-4.34,0-6.51,0-.41.11-.56.51-.5a1.86,1.86,0,0,0,.49,0c.32,0,.52.05.44.49A2.38,2.38,0,0,1,27,2.21,1.92,1.92,0,0,1,29.27,4a9.31,9.31,0,0,1,0,2.38,2,2,0,0,1-3.2,1.51Zm2-2.58a3.13,3.13,0,0,0-.12-1.07.84.84,0,0,0-.85-.63.83.83,0,0,0-.91.61,4.21,4.21,0,0,0,0,2.19.83.83,0,0,0,.9.63.85.85,0,0,0,.88-.66A3.37,3.37,0,0,0,27.84,5.22Z"/><path class="cls-5" d="M14.25,7.74a2.32,2.32,0,0,1-1.73.53,1.88,1.88,0,0,1-1.73-1.9c0-1.28,0-2.57,0-3.86,0-.27.1-.32.35-.33,1.16,0,1.16-.05,1.16,1.09,0,.85,0,1.7,0,2.55S12.66,7,13.26,7a1,1,0,0,0,1-1.12c0-1.09,0-2.17,0-3.26,0-.31.09-.39.39-.4,1.12,0,1.12,0,1.12,1.08,0,1.48,0,3,0,4.45,0,.37-.09.54-.48.49a2.56,2.56,0,0,0-.54,0C14.44,8.24,14.21,8.19,14.25,7.74Z"/><path class="cls-5" d="M20.84,5.68c-.51,0-1,0-1.52,0-.28,0-.33.1-.29.35a1.42,1.42,0,0,0,2.18.79c.16-.09.29-.39.48-.26a3.53,3.53,0,0,1,.77.76c.1.14-.12.23-.22.31a3.13,3.13,0,0,1-3.18.45,2.43,2.43,0,0,1-1.52-2.31,4.57,4.57,0,0,1,.09-1.57,2.44,2.44,0,0,1,2.59-2,2.42,2.42,0,0,1,2.42,2.14c.24,1.34.24,1.34-1.09,1.34Zm-.72-1c.25,0,.51,0,.76,0s.39-.1.32-.38a1.08,1.08,0,0,0-1-.88,1.06,1.06,0,0,0-1.12.68c-.19.47-.12.57.37.58Z"/><path class="cls-6" d="M30.78,5.26c0-.28.05-.57.07-.86a2.51,2.51,0,0,1,3.83-1.86c1.07.61,1.18,1.66,1.18,2.74A2.71,2.71,0,0,1,34.68,8a2.51,2.51,0,0,1-3.82-1.88C30.83,5.8,30.8,5.53,30.78,5.26Zm3.58,0a4,4,0,0,0-.09-1,.91.91,0,0,0-.94-.74.88.88,0,0,0-.94.73,4.23,4.23,0,0,0,0,2,.87.87,0,0,0,.9.72.91.91,0,0,0,1-.7A3.17,3.17,0,0,0,34.36,5.29Z"/><path class="cls-4" d="M42.51,2.77a2.2,2.2,0,0,1,2.25-.44A1.84,1.84,0,0,1,46,4.15c0,1.23,0,2.46,0,3.69,0,.26-.08.33-.34.34-1.17.05-1.17.06-1.17-1.09,0-.83,0-1.67,0-2.5,0-.66-.34-1-.91-1.07a1,1,0,0,0-1,1c0,1.07,0,2.14,0,3.21,0,.32-.07.43-.42.43-1,0-1,0-1-1,0-1.47,0-2.93,0-4.4,0-.39.12-.52.49-.47a2.08,2.08,0,0,0,.54,0C42.43,2.22,42.58,2.35,42.51,2.77Z"/><path class="cls-5" d="M48.17,5.19c0-.34,0-.69,0-1s.12-.66-.46-.68c-.35,0-.11-.48-.17-.74s0-.36.28-.33.37-.11.35-.37a2.14,2.14,0,0,1,0-.38c0-.32-.15-.81.08-.92A3.23,3.23,0,0,1,49.47.67c.17,0,.21.11.2.25s0,.43,0,.65c0,.75,0,.77.75.83.46,0,.26.37.26.56s.18.55-.28.55c-.14,0-.29,0-.43,0s-.31.1-.31.32c0,.85,0,1.7,0,2.55,0,.41.24.53.59.53.79,0,.34.59.42.91s-.23.34-.47.35c-1.48,0-2-.55-2.05-2Q48.17,5.68,48.17,5.19Z"/><path class="cls-3" d="M6.75,3.46c0-1,0-2,0-3,0-.33.05-.47.43-.47C8.26,0,8.26,0,8.26,1.08q0,2.53,0,5.05c0,.71,0,.76.71.78.32,0,.41.13.38.42a5.32,5.32,0,0,0,0,.6c0,.15,0,.21-.21.25A1.82,1.82,0,0,1,6.75,6.29C6.75,5.35,6.75,4.41,6.75,3.46Z"/><path class="cls-7" d="M39,5.19c0,.87,0,1.74,0,2.61,0,.32-.1.39-.4.39-1.12,0-1.12,0-1.12-1.09,0-1.47,0-2.93,0-4.4,0-.39.12-.49.49-.48,1,0,1,0,1,1Q39,4.21,39,5.19Z"/><path class="cls-7" d="M12.56,16.91c0,.67,0,1.25,0,1.82,0,.23,0,.37-.31.38s-.28-.19-.28-.39c0-1.66,0-3.33,0-5,0-.13-.08-.32.13-.36s.35-.08.4.05c.13.31.25.16.43.07a1.43,1.43,0,0,1,2.19,1.1,4.68,4.68,0,0,1,0,1.46,1.43,1.43,0,0,1-2.17,1.08Zm2-1.62a2.27,2.27,0,0,0-.11-.85.85.85,0,0,0-.85-.62.85.85,0,0,0-.93.59,2.84,2.84,0,0,0,0,1.81.84.84,0,0,0,.88.57.85.85,0,0,0,.88-.59A2.22,2.22,0,0,0,14.58,15.29Z"/><path class="cls-8" d="M19.3,15.73c0,.4,0,.8,0,1.19s-.42.4-.49.28c-.2-.34-.34-.11-.52,0a2.07,2.07,0,0,1-1.54,0,1,1,0,0,1-.66-1,1,1,0,0,1,.68-1A4.42,4.42,0,0,1,18.12,15c.19,0,.51.19.57-.18a.75.75,0,0,0-.35-.89A1.41,1.41,0,0,0,16.9,14c-.23.16-.38.19-.53,0s.1-.31.22-.4a2.26,2.26,0,0,1,2.27,0,1.14,1.14,0,0,1,.45.95C19.31,14.94,19.3,15.34,19.3,15.73Zm-1.7,1c.85,0,1.2-.34,1.11-1.08,0-.14,0-.25-.2-.25-.43,0-.87,0-1.3,0a.65.65,0,0,0-.34,1.12A1,1,0,0,0,17.6,16.78Z"/><path class="cls-9" d="M33.38,15.46c-.36,0-.73,0-1.09,0s-.35.14-.3.39a1.21,1.21,0,0,0,1.79.81,2.62,2.62,0,0,0,.32-.2c.2-.13.3,0,.4.15s0,.23-.12.29a2,2,0,0,1-2,.29,1.55,1.55,0,0,1-1-1.35,3.32,3.32,0,0,1,0-1.19,1.6,1.6,0,0,1,1.91-1.33,1.75,1.75,0,0,1,1.36,1.94c0,.22-.16.2-.3.2ZM33,15h.86c.19,0,.24-.07.22-.26a1,1,0,0,0-.87-1,1,1,0,0,0-1.14.6c-.23.51-.15.62.39.62Z"/><path class="cls-5" d="M27,15.33c0-.54,0-1.09,0-1.63,0-.12-.06-.28.1-.33s.39-.1.45.06c.12.31.25.14.4.06a1.43,1.43,0,0,1,2.21,1.35c0,.69,0,1.38,0,2.06,0,.22,0,.43-.31.41s-.29-.2-.29-.4c0-.67,0-1.34,0-2s-.34-1.1-1-1.1-1,.36-1,1.1,0,1.34,0,2c0,.2,0,.39-.28.4s-.31-.2-.31-.41C27,16.38,27,15.85,27,15.33Z"/><path class="cls-10" d="M40.6,17.33A2.53,2.53,0,0,1,39.25,17c-.11-.07-.35-.14-.15-.36s.22-.26.44-.1a1.92,1.92,0,0,0,1.46.26c.39,0,.72-.22.71-.67s-.33-.51-.69-.54-.61,0-.92-.1a1,1,0,0,1-1-.93A1.08,1.08,0,0,1,40,13.39a2.48,2.48,0,0,1,1.8.12c.11,0,.35.07.25.26s-.21.33-.48.2a1.92,1.92,0,0,0-1.27-.15c-.32.07-.54.23-.55.57s.23.51.55.55l.86.09c.74.08,1.12.4,1.16,1a1.16,1.16,0,0,1-1,1.22C41.07,17.28,40.83,17.3,40.6,17.33Z"/><path class="cls-4" d="M24.31,15.18c0-.27,0-.54,0-.81s.14-.66-.39-.64c-.11,0-.11-.12-.12-.21s0-.24.16-.22c.42,0,.35-.25.35-.5s0-.36,0-.54.15-.21.3-.21.3,0,.29.21,0,.29,0,.43c-.06.43,0,.7.56.6.16,0,.33,0,.32.23s-.2.23-.34.21c-.5-.08-.56.17-.54.59,0,.6,0,1.19,0,1.79,0,.4.11.69.57.67.25,0,.31.1.3.32s-.2.2-.35.21a1,1,0,0,1-1.11-1c0-.38,0-.76,0-1.14Z"/><path class="cls-7" d="M20.77,15.31c0-.54,0-1.09,0-1.63,0-.12-.06-.28.12-.32s.38-.09.44.08c.12.33.25.13.39.06a1.51,1.51,0,0,1,1.46-.05c.1.05.33.11.19.3s-.17.35-.46.24c-1-.38-1.53,0-1.54,1.05,0,.63,0,1.27,0,1.9,0,.22,0,.37-.31.38s-.29-.17-.29-.38C20.78,16.39,20.77,15.85,20.77,15.31Z"/><path class="cls-7" d="M36,15.33c0-.54,0-1.09,0-1.63,0-.13-.08-.32.15-.35s.36-.09.43.11.23.11.35,0a1.53,1.53,0,0,1,1.46-.07c.12.06.37.12.19.34s-.16.31-.42.23c-1.1-.36-1.55,0-1.56,1.13,0,.62,0,1.23,0,1.85,0,.26-.08.34-.34.34S36,17.14,36,17Q36,16.15,36,15.33Z"/><path class="cls-2" d="M38.42,1.22h-.16c-.69,0-1-.4-.74-1.05,0-.14.14-.14.24-.14a4.56,4.56,0,0,0,.65,0c.51-.08.64.1.66.62S38.74,1.26,38.42,1.22Z"/><path class="cls-1" d="M62.62,2.6c0,.07,0,.13-.11.14A.13.13,0,0,1,62.62,2.6Z"/><path class="cls-1" d="M62.52,2.73c0,.08,0,.13-.12.11A.1.1,0,0,1,62.52,2.73Z"/><path class="cls-1" d="M68.18,8.52c0-.1.09-.1.17-.12S68.26,8.52,68.18,8.52Z"/></g></g></svg>