<svg xmlns="http://www.w3.org/2000/svg" viewBox="0 0 21.87 20.19"><defs><style>.cls-1{fill:#1b1c1d;fill-rule:evenodd;}</style></defs><title>logo자산 8</title><g id="레이어_2" data-name="레이어 2"><g id="레이어_1-2" data-name="레이어 1"><path class="cls-1" d="M7.8,12.65a3.5,3.5,0,0,1-1-2.56,3.5,3.5,0,0,1,1-2.56,3.29,3.29,0,0,1,2.47-1A3,3,0,0,1,13.34,9h1.84a5,5,0,0,0-1.69-3,4.85,4.85,0,0,0-3.23-1.13,5.18,5.18,0,0,0-3.74,1.5A5.08,5.08,0,0,0,5,10.09a5.07,5.07,0,0,0,1.52,3.76,5.18,5.18,0,0,0,3.74,1.5,4.84,4.84,0,0,0,3.23-1.11,5,5,0,0,0,1.69-3H13.34a3,3,0,0,1-3.08,2.42A3.29,3.29,0,0,1,7.8,12.65Zm9.87,5.85h2.52V16H17.66Zm2.52-4.21h1.68v5.89H0V0H20.19Z"/></g></g></svg>