<svg xmlns="http://www.w3.org/2000/svg" viewBox="0 0 58.58 10.56"><defs><style>.cls-1{fill:#dd4237;}.cls-2{fill:#dc4237;}</style></defs><title>logo자산 2</title><g id="레이어_2" data-name="레이어 2"><g id="레이어_1-2" data-name="레이어 1"><path class="cls-1" d="M11.53,4.21a1.67,1.67,0,0,1-.12.62c-.24.65-.48,1.31-.73,2-.08.22-.06.28.19.23l2.31-.41c.22,0,.27,0,.18.21-.24.64-.47,1.29-.7,1.94a.3.3,0,0,1-.27.22L3.56,10.52A1.44,1.44,0,0,1,2,8.59c.24-.7.5-1.39.76-2.08.07-.2.08-.28-.18-.23-.77.15-1.54.27-2.31.42C0,6.73,0,6.68,0,6.46c.23-.59.45-1.19.65-1.79a.48.48,0,0,1,.43-.38L7.83,3.13c.66-.11,1.31-.22,2-.34A1.45,1.45,0,0,1,11.53,4.21ZM4.83,8.08,7.54,7.6c.15,0,.2-.12.25-.25.19-.53.38-1.05.57-1.58l.19-.56-2.73.48a.22.22,0,0,0-.18.16Z"/><path class="cls-1" d="M17.5,5.22c0-1.56,0-3.13,0-4.69,0-.31.09-.41.39-.39s.57,0,.86,0a.71.71,0,0,1,.78.77c0,.69,0,1.37,0,2.06,0,.39,0,.38.33.22a3.84,3.84,0,0,1,5.39,4.94,3.76,3.76,0,0,1-4,2.18,4,4,0,0,1-1.66-.58c-.16-.11-.23-.06-.3.09a.69.69,0,0,1-.61.39c-.32,0-.63,0-1,0s-.17-.17-.17-.29q0-2.09,0-4.18,0-.27,0-.54Zm4,3.26a1.87,1.87,0,0,0,.09-3.74,1.87,1.87,0,0,0-1.93,1.82A1.84,1.84,0,0,0,21.46,8.47Z"/><path class="cls-2" d="M26.11,5.4c0-.66,0-1.31,0-2,0-.29.09-.37.37-.35s.66,0,1,0c.5,0,.69.2.7.69,0,1.12,0,2.24,0,3.36a1.44,1.44,0,0,0,1.18,1.48,1.45,1.45,0,0,0,1.73-1.19,6.85,6.85,0,0,0,0-1.11c0-1,0-2,0-2.95,0-.23.06-.32.3-.31s.72,0,1.08,0,.63.19.63.61c0,1.19,0,2.39,0,3.58a3.26,3.26,0,0,1-3.37,3.29,3.37,3.37,0,0,1-3-1.34,3.33,3.33,0,0,1-.64-2c0-.61,0-1.23,0-1.84Z"/><path class="cls-2" d="M49.32,8,50.45,4.8c.18-.52.37-1,.54-1.56A.29.29,0,0,1,51.34,3a5.35,5.35,0,0,0,.82,0c.69-.07,1,.39.73,1-.72,1.77-1.39,3.56-2.09,5.34-.13.32-.15.75-.43.93s-.66,0-1,0-.59,0-.89,0a.33.33,0,0,1-.38-.24Q46.8,6.71,45.45,3.31c-.11-.28,0-.32.23-.31s.76,0,1.14,0c.58,0,.77.13,1,.67Z"/><path class="cls-1" d="M45.29,8.53l-1,1.73c-.06.11-.17.11-.27.11H39.49c-.34,0-.18-.16-.11-.29l2.75-4.82c.24-.42.24-.42-.23-.42H39.34c-.25,0-.27-.07-.15-.27q.41-.69.81-1.4A.33.33,0,0,1,40.32,3h4a.91.91,0,0,1,.77,1.41c-.69,1.23-1.41,2.46-2.11,3.69l-.1.16c-.13.19-.1.27.15.27h2.29Z"/><path class="cls-1" d="M36.6,3h2.47c.33,0,.33,0,.16.3L36.44,8.16c-.21.37-.21.38.23.38H39.3c.23,0,.29,0,.15.26-.28.45-.54.91-.8,1.37a.38.38,0,0,1-.38.22H34.45a.91.91,0,0,1-.83-1.43c.71-1.26,1.43-2.51,2.15-3.77.18-.32.18-.32-.2-.32H34c-.19,0-.26-.06-.26-.25,0-.43,0-.87,0-1.3,0-.23.06-.31.3-.31C34.91,3,35.75,3,36.6,3Z"/><path class="cls-2" d="M58.57,5.57c0,1.47,0,2.94,0,4.41,0,.29-.09.4-.38.38s-.85,0-1.27,0-.39-.08-.38-.38c0-1.74,0-3.49,0-5.23q0-2,0-4.06c0-.42,0-.42.44-.42h.73a.76.76,0,0,1,.86.86C58.57,2.61,58.57,4.09,58.57,5.57Z"/><path class="cls-2" d="M55.46,7.06c0,1,0,1.94,0,2.91,0,.31-.1.4-.4.39s-.89,0-1.33,0c-.21,0-.3-.05-.3-.28q0-3.37,0-6.75c0-.25.09-.34.33-.32s.42,0,.63,0a1,1,0,0,1,1.05,1c0,.87,0,1.73,0,2.6,0,.14,0,.27,0,.41Z"/><path class="cls-2" d="M53.29,1.11A1.09,1.09,0,0,1,54.38,0a1.12,1.12,0,0,1,1.13,1.12,1.13,1.13,0,0,1-1.1,1.12A1.11,1.11,0,0,1,53.29,1.11Z"/></g></g></svg>