<svg xmlns="http://www.w3.org/2000/svg" viewBox="0 0 40.37 20.9"><defs><style>.cls-1{fill:#a3a3a3;}.cls-2{fill:#2c2e7e;}.cls-3{fill:#f1aa26;}.cls-4{fill:#231815;}</style></defs><title>logo자산 5</title><g id="레이어_2" data-name="레이어 2"><g id="레이어_1-2" data-name="레이어 1"><polyline class="cls-1" points="31.76 14.15 31.74 10.33 26.86 7.05 26.86 10.3 28.86 12.24"/><polygon class="cls-2" points="34.66 8.65 24.8 2.1 28.24 0 38.01 6.49 34.66 8.65"/><polygon class="cls-1" points="38.01 9.97 34.66 12.21 34.66 8.65 38.01 6.49 38.01 9.97"/><polygon class="cls-3" points="38.01 9.97 31.76 14.15 28.86 12.24 31.74 10.33 29.3 8.69 23.93 12.24 31.6 17.38 40.37 11.44 38.01 9.97"/><polygon class="cls-1" points="40.37 14.93 40.37 11.44 31.6 17.38 31.6 20.9 40.37 14.93"/><path class="cls-4" d="M7.78,8.4v6h2.78V7.24a.81.81,0,0,0-.85-.85H0v8H2.84V7.92H7.32A.46.46,0,0,1,7.78,8.4Z"/><path class="cls-4" d="M15.43,8.06h6.71V6.39H13a.72.72,0,0,0-.66.61v6.78a.59.59,0,0,0,.61.64h9.24V12.75H15.43a.43.43,0,0,1-.4-.4V8.47A.38.38,0,0,1,15.43,8.06Z"/></g></g></svg>