<svg xmlns="http://www.w3.org/2000/svg" viewBox="0 0 43.46 12.42"><defs><style>.cls-1{fill:#871b22;}.cls-2{fill:#881b22;}</style></defs><title>logo자산 7</title><g id="레이어_2" data-name="레이어 2"><g id="레이어_1-2" data-name="레이어 1"><path class="cls-1" d="M15.8,0a4.1,4.1,0,0,1,1.27.63,2.85,2.85,0,0,1,.34,3.87c-.16.2-.15.3,0,.44a2.14,2.14,0,0,1,.79,1.2,4.47,4.47,0,0,1,.06,2.08,2.48,2.48,0,0,1-2.4,2c-1.59,0-3.18,0-4.77,0a.3.3,0,0,1-.34-.34c0-.13,0-.25,0-.38q0-4.45,0-8.9c0-.2,0-.4,0-.6ZM14.14,5.7H13c-.26,0-.4.09-.39.37,0,.68,0,1.35,0,2,0,.23.09.35.34.34.75,0,1.5,0,2.25,0a1.29,1.29,0,0,0,1.24-1.35,1.29,1.29,0,0,0-1.22-1.37C14.89,5.68,14.52,5.7,14.14,5.7ZM14,1.81H13c-.19,0-.32.06-.32.27q0,.79,0,1.57a.22.22,0,0,0,.23.25,16.41,16.41,0,0,0,2.36,0,1,1,0,0,0,.84-1.08,1,1,0,0,0-1-1C14.74,1.79,14.39,1.81,14,1.81Z"/><path class="cls-2" d="M34.67,0c0,.38,0,.75,0,1.13q0,4.19,0,8.38c0,.71,0,.71-.73.71H30a2.63,2.63,0,0,1-2.83-2.81c0-.34,0-.68,0-1a2.57,2.57,0,0,1,2.53-2.48,28.23,28.23,0,0,1,2.85,0c.33,0,.31-.16.31-.36,0-1,0-2,0-3,0-.19,0-.37,0-.56ZM30.92,8.43h0c.34,0,.68,0,1,0a.87.87,0,0,0,.9-.87,7.83,7.83,0,0,0,0-1A.85.85,0,0,0,32,5.69c-.7,0-1.4,0-2.1,0a.84.84,0,0,0-.86.83A7,7,0,0,0,29,7.6a.85.85,0,0,0,.86.82C30.22,8.44,30.57,8.43,30.92,8.43Z"/><path class="cls-2" d="M36.18,12.42c0-.41,0-.83,0-1.24s.09-.53.48-.51a1.54,1.54,0,0,0,1.24-.52.59.59,0,0,0,.09-.8c-.93-1.65-1.85-3.3-2.77-5-.26-.47-.25-.49.27-.49s.8,0,1.2,0a.57.57,0,0,1,.6.35c.57,1,1.15,2.08,1.73,3.12.2.36.25.36.45,0,.58-1,1.16-2.05,1.72-3.09a.62.62,0,0,1,.65-.39c.41,0,.83,0,1.24,0s.46,0,.24.44l-3,5.45a9.87,9.87,0,0,1-1.05,1.6,4.39,4.39,0,0,1-1.55,1Z"/><path class="cls-2" d="M1.89,0q0,4.83,0,9.65c0,.56,0,.56-.56.57H0C0,6.92,0,3.61,0,.3,0,0,.07,0,.31,0,.84,0,1.36,0,1.89,0Z"/><path class="cls-2" d="M22.73,3.91c.44,0,.88,0,1.31,0A2.59,2.59,0,0,1,26.57,6.4c0,.4,0,.8,0,1.2A2.59,2.59,0,0,1,24,10.21c-.88,0-1.75,0-2.63,0a2.6,2.6,0,0,1-2.53-2.57c0-.4,0-.8,0-1.2a2.6,2.6,0,0,1,2.57-2.53Zm0,4.52c.38,0,.75,0,1.13,0a.86.86,0,0,0,.88-.85,7.46,7.46,0,0,0,0-1.05.84.84,0,0,0-.85-.84c-.75,0-1.5,0-2.25,0a.85.85,0,0,0-.84.88c0,.32,0,.65,0,1a.86.86,0,0,0,.89.88C22,8.44,22.35,8.43,22.7,8.43Z"/><path class="cls-1" d="M2.52,7.08c0-.88,0-1.75,0-2.63,0-.53,0-.54.55-.54h.26c1.36.15,2.72-.05,4.08,0A3.88,3.88,0,0,1,8.2,4a2.42,2.42,0,0,1,1.94,2.37c0,1.15,0,2.31,0,3.46,0,.31-.11.44-.42.42s-.7,0-1.05,0-.41-.13-.41-.43c0-1,0-2,0-3,0-.81-.26-1.07-1.09-1.08H5.49c-.84,0-1.11.27-1.11,1.1s0,1.9,0,2.86c0,.59,0,.59-.61.59-.26,0-.53,0-.79,0s-.48-.14-.47-.48C2.53,8.86,2.52,8,2.52,7.08Z"/></g></g></svg>